<svg class="svg-icon" style="width: 1em; height: 1em;vertical-align: middle;fill: currentColor;overflow: hidden;" viewBox="0 0 1024 1024" version="1.1" xmlns="http://www.w3.org/2000/svg"><path d="M962.56 695.466667L635.306667 152.746667a146.346667 146.346667 0 0 0-246.613334 0L61.44 695.466667a128 128 0 0 0-2.133333 128A143.786667 143.786667 0 0 0 184.746667 896h654.506666a143.786667 143.786667 0 0 0 125.44-70.826667 128 128 0 0 0-2.133333-129.706666z m-72.533333 87.466666a55.893333 55.893333 0 0 1-50.773334 27.733334H184.746667a55.893333 55.893333 0 0 1-50.773334-27.733334 42.666667 42.666667 0 0 1 0-42.666666l327.68-543.146667a63.146667 63.146667 0 0 1 100.693334 0l327.253333 542.72a42.666667 42.666667 0 0 1 0.426667 43.093333z" fill="#231F20" /><path d="M512 682.666667m-42.666667 0a42.666667 42.666667 0 1 0 85.333334 0 42.666667 42.666667 0 1 0-85.333334 0Z" fill="#231F20" /><path d="M512 341.333333a42.666667 42.666667 0 0 0-42.666667 42.666667v170.666667a42.666667 42.666667 0 0 0 85.333334 0V384a42.666667 42.666667 0 0 0-42.666667-42.666667z" fill="#231F20" /></svg>