<svg class="svg-icon" style="width: 1em; height: 1em;vertical-align: middle;fill: currentColor;overflow: hidden;" viewBox="0 0 1024 1024" version="1.1" xmlns="http://www.w3.org/2000/svg"><path d="M170.666667 554.666667h256c23.466667 0 42.666667-19.2 42.666666-42.666667V170.666667c0-23.466667-19.2-42.666667-42.666666-42.666667H170.666667c-23.466667 0-42.666667 19.2-42.666667 42.666667v341.333333c0 23.466667 19.2 42.666667 42.666667 42.666667z m0 341.333333h256c23.466667 0 42.666667-19.2 42.666666-42.666667v-170.666666c0-23.466667-19.2-42.666667-42.666666-42.666667H170.666667c-23.466667 0-42.666667 19.2-42.666667 42.666667v170.666666c0 23.466667 19.2 42.666667 42.666667 42.666667z m426.666666 0h256c23.466667 0 42.666667-19.2 42.666667-42.666667v-341.333333c0-23.466667-19.2-42.666667-42.666667-42.666667h-256c-23.466667 0-42.666667 19.2-42.666666 42.666667v341.333333c0 23.466667 19.2 42.666667 42.666666 42.666667zM554.666667 170.666667v170.666666c0 23.466667 19.2 42.666667 42.666666 42.666667h256c23.466667 0 42.666667-19.2 42.666667-42.666667V170.666667c0-23.466667-19.2-42.666667-42.666667-42.666667h-256c-23.466667 0-42.666667 19.2-42.666666 42.666667z"  /></svg>