<?xml version="1.0" standalone="no"?>
<!DOCTYPE svg PUBLIC "-//W3C//DTD SVG 20010904//EN"
 "http://www.w3.org/TR/2001/REC-SVG-20010904/DTD/svg10.dtd">
<svg version="1.0" xmlns="http://www.w3.org/2000/svg"
 width="16.000000pt" height="16.000000pt" viewBox="0 0 16.000000 16.000000"
 preserveAspectRatio="xMidYMid meet">
<metadata>
Created by potrace 1.16, written by Peter Selinger 2001-2019
</metadata>
<g transform="translate(0.000000,16.000000) scale(0.025000,-0.025000)"
fill="#000000" stroke="none">
<path d="M548 612 c-10 -2 -21 -14 -24 -27 -8 -33 -31 -51 -88 -70 -47 -16
-49 -16 -70 4 -38 35 -96 23 -96 -20 0 -21 -46 -56 -80 -60 -14 -2 -29 -14
-35 -26 -11 -25 -45 -43 -80 -43 -15 0 -31 -10 -41 -25 -15 -23 -15 -27 0 -51
22 -32 65 -30 83 5 16 34 40 46 101 50 7 1 18 13 25 29 28 64 123 98 163 58
23 -23 66 -16 80 12 18 37 56 72 78 72 40 0 59 29 46 66 -9 22 -33 33 -62 26z"/>
<path d="M515 358 c-3 -8 -4 -90 -3 -183 l3 -170 50 0 50 0 0 180 0 180 -48 3
c-32 2 -49 -1 -52 -10z"/>
<path d="M270 160 l0 -160 50 0 50 0 0 160 0 160 -50 0 -50 0 0 -160z"/>
<path d="M401 266 c-8 -9 -11 -55 -9 -137 l3 -124 44 -3 c28 -2 47 1 52 10 5
7 9 66 9 130 0 106 -2 118 -19 128 -28 14 -66 13 -80 -4z"/>
<path d="M146 235 c-9 -24 -7 -208 3 -223 5 -9 24 -12 52 -10 l44 3 0 120 0
120 -46 3 c-36 2 -48 -1 -53 -13z"/>
<path d="M24 187 c-3 -8 -4 -52 -2 -98 l3 -84 50 0 50 0 3 75 c4 112 1 120
-54 120 -28 0 -47 -5 -50 -13z"/>
</g>
</svg>
