<?xml version="1.0" standalone="no"?>
<!DOCTYPE svg PUBLIC "-//W3C//DTD SVG 20010904//EN"
 "http://www.w3.org/TR/2001/REC-SVG-20010904/DTD/svg10.dtd">
<svg version="1.0" xmlns="http://www.w3.org/2000/svg"
 width="981.000000pt" height="990.000000pt" viewBox="0 0 981.000000 990.000000"
 preserveAspectRatio="xMidYMid meet">

<g transform="translate(0.000000,990.000000) scale(0.100000,-0.100000)"
fill="#000000" stroke="none">
<path d="M8405 9883 c-56 -20 -120 -66 -137 -96 -9 -18 65 -95 693 -723 387
-387 708 -704 713 -704 16 0 74 69 97 117 34 68 34 187 0 258 -36 75 -1064
1102 -1136 1135 -68 31 -164 36 -230 13z"/>
<path d="M7672 9447 l-382 -382 838 -837 837 -837 378 384 379 385 -827 833
c-455 457 -830 833 -833 835 -4 1 -179 -170 -390 -381z"/>
<path d="M4195 5736 l-2990 -2984 181 -182 181 -182 2986 2994 2987 2993 -172
172 c-95 95 -175 173 -178 173 -3 0 -1351 -1343 -2995 -2984z"/>
<path d="M4752 5171 l-2982 -2986 173 -173 c95 -94 177 -172 182 -172 6 0
1353 1343 2995 2985 l2985 2985 -175 175 c-96 96 -179 174 -185 173 -5 0
-1352 -1345 -2993 -2987z"/>
<path d="M5325 4610 l-2990 -2990 178 -177 177 -178 2990 2990 2990 2990 -178
178 -177 177 -2990 -2990z"/>
<path d="M757 1827 c-152 -369 -283 -687 -289 -705 l-13 -32 315 -315 c173
-173 319 -315 324 -315 6 0 309 125 675 277 366 152 681 283 700 290 l34 15
-729 729 c-401 401 -731 729 -734 729 -3 0 -130 -303 -283 -673z"/>
<path d="M155 378 c-66 -161 -128 -311 -137 -335 l-17 -42 22 8 c12 5 152 64
311 131 159 67 301 126 315 131 24 10 18 17 -169 204 -107 107 -197 195 -200
195 -3 0 -59 -131 -125 -292z"/>
</g>
</svg>
