
<svg xmlns="http://www.w3.org/2000/svg" version="1.1" xmlns:xlink="http://www.w3.org/1999/xlink" preserveAspectRatio="none" x="0px" y="0px" width="100px" height="100px" viewBox="0 0 100 100">
<defs>
<g id="Layer0_0_FILL">
<path fill="#000000" stroke="none" d="
M 95.55 53.25
Q 95.35 52.3 94.5 51.7 93.75 50.95 92.7 50.95 91.75 50.85 90.9 51.35
L 51.05 74.5
Q 50.2 74.95 49.85 75.8 49.35 76.65 49.5 77.6 49.6 78.55 50.2 79.25 50.9 80.1 51.9 80.35
L 68.25 85 76.45 97.9
Q 76.95 98.6 77.65 99.05 78.4 99.45 79.2 99.45 80.15 99.45 81 98.95 81.5 98.6 81.85 98 82.3 97.5 82.45 96.9 82.55 96.35 82.45 95.6 82.3 95 81.95 94.4
L 73 80.45
Q 72.3 79.5 71.1 79.15
L 60.85 76.15 87.1 61 80.9 81.75
Q 80.65 82.35 80.75 82.95 80.75 83.55 81.1 84.15 81.35 84.75 81.85 85.1 82.45 85.6 83.05 85.7 84.35 86.05 85.55 85.45 86.6 84.85 87.1 83.55
L 95.55 55.15
Q 95.9 54.2 95.55 53.25 Z"/>
</g>

<g id="Layer0_1_FILL">
<path fill="#000000" stroke="none" d="
M 55.55 25.8
Q 55.4 25.65 55.15 25.65
L 37.45 25.65
Q 37.25 25.65 37.1 25.8 36.9 25.95 36.9 26.15
L 36.9 28.05
Q 36.9 28.25 37.1 28.4 37.25 28.55 37.45 28.55
L 55.15 28.55
Q 55.4 28.55 55.55 28.4 55.7 28.25 55.7 28.05
L 55.7 26.15
Q 55.7 25.95 55.55 25.8 Z"/>
</g>

<g id="Layer0_2_FILL">
<path fill="#000000" stroke="none" d="
M 804.8 73.4
Q 795.35 64 782.2 64
L 142.2 64
Q 129 64 119.6 73.4 110.2 82.85 110.2 96
L 110.2 928
Q 110.2 941.2 119.6 950.6 129 960 142.2 960
L 404.7 960
Q 411.3 960 416 955.3 420.7 950.6 420.7 944
L 420.7 904
Q 420.7 897.45 416 892.7 411.3 888 404.7 888
L 182.15 888 182.15 136 742.2 136 742.2 434.4
Q 742.2 441 746.9 445.7 751.6 450.4 758.2 450.4
L 798.2 450.4
Q 804.8 450.4 809.5 445.7 814.2 441 814.2 434.4
L 814.2 96
Q 814.2 82.85 804.8 73.4 Z"/>
</g>

<g id="Layer0_3_FILL">
<path fill="#000000" stroke="none" d="
M 52.5 34.4
Q 51.95 33.1 50.95 32.1 49.95 31.1 48.65 30.55 47.3 30 45.85 30 44.35 30 43 30.55 41.7 31.1 40.7 32.1 39.7 33.1 39.15 34.4 38.6 35.75 38.6 37.25 38.6 38.8 39.25 40.2 39.85 41.55 40.95 42.6 39.55 43.1 38.45 43.9 37 44.95 36.2 46.35 35.3 47.85 35.3 49.55 35.3 50.1 35.7 50.5 36.1 50.9 36.65 50.9 37.25 50.9 37.65 50.5 38.05 50.1 38.05 49.55 38.05 48.6 38.55 47.7 39.1 46.85 40.05 46.15 41.15 45.35 42.55 44.95 43.95 44.55 45.5 44.55 47.4 44.55 48.9 44.95 49.997265625 45.242578125 50.8 45.7 51.0552734375 45.8751953125 51.25 46.05
L 53.7 44.55
Q 53.399609375 44.232421875 53.05 43.95 52.15 43.2 51.05 42.75 51.1216796875 42.6783203125 51.2 42.6 51.3396484375 42.4603515625 51.5 42.3 52.3 41.35 52.7 40.1 53.1 38.8 53.1 37.25 53.1 35.75 52.5 34.4
M 41.7 35.5
Q 42.05 34.7 42.65 34.05 43.3 33.45 44.1 33.1 44.95 32.75 45.85 32.75 46.75 32.75 47.6 33.1 48.4 33.45 49 34.05 49.65 34.7 50 35.5 50.35 36.3 50.35 37.25 50.35 39.4 49.4 40.5 48.35 41.75 45.85 41.75 44.95 41.75 44.1 41.35 43.3 41.05 42.65 40.4 42.05 39.8 41.7 39 41.35 38.15 41.35 37.25 41.35 36.3 41.7 35.5 Z"/>
</g>
</defs>

<g transform="matrix( 1, 0, 0, 1, 0,0) ">
<use xlink:href="#Layer0_0_FILL"/>
</g>

<g transform="matrix( 2.3873291015625, 0, 0, 2.3873291015625, -63.55,-41.9) ">
<use xlink:href="#Layer0_1_FILL"/>
</g>

<g transform="matrix( 0.10943603515625, 0, 0, 0.10943603515625, -3.6,-5.85) ">
<use xlink:href="#Layer0_2_FILL"/>
</g>

<g transform="matrix( 2.3873291015625, 0, 0, 2.3873291015625, -63.55,-41.9) ">
<use xlink:href="#Layer0_3_FILL"/>
</g>
</svg>
