
<svg xmlns="http://www.w3.org/2000/svg" version="1.1" xmlns:xlink="http://www.w3.org/1999/xlink" preserveAspectRatio="none" x="0px" y="0px" width="200px" height="200px" viewBox="0 0 200 200">
<defs>
<g id="Layer1_0_FILL">
<path fill="#000000" stroke="none" d="
M 375.15 183.4
Q 354.7 162.95 325.8 162.95
L 162.9 162.95
Q 134.05 162.95 113.55 183.4 93.1 203.9 93.1 232.75
L 93.1 395.65
Q 93.1 424.55 113.55 445 134.05 465.5 162.9 465.5
L 325.8 465.5
Q 354.65 465.5 375.15 445 395.6 424.55 395.6 395.65
L 395.6 232.75
Q 395.6 203.9 375.15 183.4
M 325.8 209.5
Q 335.45 209.5 342.25 216.35 349.05 223.15 349.05 232.75
L 349.05 395.65
Q 349.05 405.3 342.25 412.1 335.45 418.95 325.8 418.95
L 162.9 418.95
Q 153.25 418.95 146.45 412.1 139.65 405.3 139.65 395.65
L 139.65 232.75
Q 139.65 223.15 146.45 216.35 153.25 209.5 162.9 209.5
L 325.8 209.5 Z"/>
</g>

<g id="Layer1_1_FILL">
<path fill="#000000" stroke="none" d="
M 93.1 628.4
L 93.1 791.3
Q 93.1 820.2 113.55 840.65 134.05 861.1 162.9 861.1
L 325.8 861.1
Q 354.7 861.1 375.15 840.65 395.6 820.2 395.6 791.3
L 395.6 628.4
Q 395.6 599.55 375.15 579.05 354.7 558.6 325.8 558.6
L 162.9 558.6
Q 134.05 558.6 113.55 579.05 93.1 599.55 93.1 628.4
M 139.65 628.4
Q 139.65 618.75 146.45 611.95 153.25 605.15 162.9 605.15
L 325.8 605.15
Q 335.45 605.15 342.25 611.95 349.05 618.75 349.05 628.4
L 349.05 791.3
Q 349.05 800.95 342.25 807.75 335.45 814.6 325.8 814.6
L 162.9 814.6
Q 153.25 814.6 146.45 807.75 139.65 800.95 139.65 791.3
L 139.65 628.4 Z"/>
</g>

<g id="Layer1_2_FILL">
<path fill="#000000" stroke="none" d="
M 924.05 239.6
Q 917.25 232.75 907.6 232.75
L 488.75 232.75
Q 479.1 232.75 472.25 239.6 465.45 246.4 465.45 256.05 465.45 265.7 472.25 272.5 479.1 279.3 488.75 279.3
L 907.6 279.3
Q 917.25 279.3 924.05 272.5 930.9 265.7 930.9 256.05 930.9 246.4 924.05 239.6 Z"/>
</g>

<g id="Layer1_3_FILL">
<path fill="#000000" stroke="none" d="
M 930.9 395.65
Q 930.9 386 924.05 379.2 917.25 372.4 907.6 372.4
L 488.75 372.4
Q 479.1 372.4 472.25 379.2 465.45 386 465.45 395.65 465.45 405.3 472.25 412.1 479.1 418.95 488.75 418.95
L 907.6 418.95
Q 917.25 418.95 924.05 412.1 930.9 405.3 930.9 395.65 Z"/>
</g>

<g id="Layer0_0_FILL">
<path fill="#000000" stroke="none" d="
M 175.9 98.2
L 172.9 98.2
Q 172.25 98.4 171.6 98.75
L 103.4 138.25
Q 101.95 139.1 101.25 140.6 100.5 142.05 100.7 143.7 100.95 145.35 102 146.6 103.1 147.85 104.7 148.3
L 132.75 156.3 147 178.5
Q 147.8 179.7 149 180.35 150.25 181 151.65 181 153.25 181 154.6 180.2 155.55 179.6 156.2 178.7 156.85 177.8 157.05 176.7 157.3 175.65 157.15 174.55 156.95 173.45 156.35 172.55
L 140.95 148.6
Q 139.8 146.9 137.8 146.3
L 120.2 141.25 165.05 115.3 154.45 150.75
Q 154.15 151.8 154.25 152.85 154.35 153.95 154.85 154.9 155.35 155.85 156.2 156.55 157.05 157.25 158.15 157.6 160.3 158.25 162.35 157.2 164.35 156.15 165.05 153.95
L 179.7 105.15
Q 180.2 103.5 179.7 101.9 179.15 100.25 177.8 99.2 176.9 98.5 175.9 98.2 Z"/>
</g>
</defs>

<g transform="matrix( 0.2087554931640625, 0, 0, 0.2087554931640625, -4.2,-5.3) ">
<use xlink:href="#Layer1_0_FILL"/>
</g>

<g transform="matrix( 0.2087554931640625, 0, 0, 0.2087554931640625, -4.2,-5.3) ">
<use xlink:href="#Layer1_1_FILL"/>
</g>

<g transform="matrix( 0.2087554931640625, 0, 0, 0.2087554931640625, -4.2,-5.3) ">
<use xlink:href="#Layer1_2_FILL"/>
</g>

<g transform="matrix( 0.2087554931640625, 0, 0, 0.2087554931640625, -4.2,-5.3) ">
<use xlink:href="#Layer1_3_FILL"/>
</g>

<g transform="matrix( 1, 0, 0, 1, 0,0) ">
<use xlink:href="#Layer0_0_FILL"/>
</g>
</svg>
