
<svg xmlns="http://www.w3.org/2000/svg" version="1.1" xmlns:xlink="http://www.w3.org/1999/xlink" preserveAspectRatio="none" x="0px" y="0px" width="200px" height="200px" viewBox="0 0 200 200">
<defs>
<g id="Layer1_0_FILL">
<path fill="#000000" stroke="none" d="
M 259.25 413.95
Q 255.7 417.35 255.7 422.15
L 255.7 462.85
Q 255.7 467.65 259.25 471.05 262.75 474.45 267.7 474.45
L 447.7 474.45
Q 452.65 474.45 456.2 471.05 459.7 467.65 459.7 462.85
L 459.7 422.15
Q 459.7 417.35 456.2 413.95 452.65 410.5 447.7 410.5
L 267.7 410.5
Q 262.75 410.5 259.25 413.95
M 663.15 233
Q 659.6 229.6 654.7 229.6
L 268.7 229.6
Q 263.75 229.6 260.25 233 256.7 236.4 256.7 241.2
L 256.7 281.9
Q 256.7 286.7 260.25 290.1 263.75 293.5 268.7 293.5
L 654.7 293.5
Q 659.65 293.5 663.15 290.1 666.7 286.7 666.7 281.9
L 666.7 241.2
Q 666.7 236.45 663.15 233 Z"/>
</g>

<g id="Layer1_1_FILL">
<path fill="#000000" stroke="none" d="
M 804.8 73.4
Q 795.35 64 782.2 64
L 142.2 64
Q 129 64 119.6 73.4 110.2 82.85 110.2 96
L 110.2 928
Q 110.2 941.2 119.6 950.6 129 960 142.2 960
L 404.7 960
Q 411.3 960 416 955.3 420.7 950.6 420.7 944
L 420.7 904
Q 420.7 897.45 416 892.7 411.3 888 404.7 888
L 182.15 888 182.15 136 742.2 136 742.2 434.4
Q 742.2 441 746.9 445.7 751.6 450.4 758.2 450.4
L 798.2 450.4
Q 804.8 450.4 809.5 445.7 814.2 441 814.2 434.4
L 814.2 96
Q 814.2 82.85 804.8 73.4 Z"/>
</g>

<g id="Layer0_0_FILL">
<path fill="#000000" stroke="none" d="
M 705.5 548.15
Q 729.15 492.25 729.15 431.2 729.15 370.1 705.5 314.25 682.6 260.3 640.95 218.65 599.3 177 545.35 154.1 489.5 130.45 428.4 130.45 367.35 130.45 311.5 154.1 257.55 177 215.9 218.65 174.25 260.3 151.4 314.25 127.75 370.1 127.75 431.2 127.75 492.25 151.4 548.15 174.25 602.05 215.9 643.75 257.55 685.35 311.5 708.25 367.35 731.9 428.4 731.9 489.5 731.9 545.35 708.25 599.3 685.4 640.95 643.75 682.6 602.05 705.5 548.15
M 669.3 431.2
Q 669.3 480.1 650.35 524.85 632.05 568.05 598.65 601.45 565.3 634.8 522.1 653.1 477.35 672.05 428.4 672.05 379.5 672.05 334.75 653.1 291.55 634.8 258.2 601.45 224.85 568.05 206.55 524.85 187.6 480.1 187.6 431.2 187.6 382.25 206.55 337.5 224.85 294.3 258.2 260.95 291.6 227.55 334.75 209.25 379.5 190.3 428.4 190.3 477.3 190.3 522.05 209.25 565.3 227.55 598.65 260.95 632 294.3 650.35 337.5 669.3 382.25 669.3 431.2 Z"/>
</g>

<g id="Layer0_1_FILL">
<path fill="#000000" stroke="none" d="
M 763.1 664.6
Q 753.1 654.6 740.05 649.3 727.5 644.2 713.9 644.2 685.05 644.2 664.65 664.6 644.25 685 644.25 713.85 644.25 742.7 664.65 763.05
L 774.35 872.8
Q 784.35 882.8 797.4 888.1 809.95 893.2 823.6 893.2 852.4 893.2 872.85 872.8 893.2 852.4 893.2 823.55 893.2 794.7 872.85 774.35
L 763.1 664.6 Z"/>
</g>
</defs>

<g transform="matrix( 0.1721038818359375, 0, 0, 0.216766357421875, 16.3,-9.85) ">
<use xlink:href="#Layer1_0_FILL"/>
</g>

<g transform="matrix( 0.1864471435546875, 0, 0, 0.2032623291015625, 9.7,-2.9) ">
<use xlink:href="#Layer1_1_FILL"/>
</g>

<g transform="matrix( 0.115631103515625, 0, 0, 0.1331787109375, 68.8,75.3) ">
<use xlink:href="#Layer0_0_FILL"/>
</g>

<g transform="matrix( 0.115631103515625, 0, 0, 0.1331787109375, 68.8,75.3) ">
<use xlink:href="#Layer0_1_FILL"/>
</g>
</svg>
